<svg width="168" height="30" viewBox="0 0 168 30" fill="none" xmlns="http://www.w3.org/2000/svg">
<g opacity="0.75">
<g clip-path="url(#clip0_1_3481)">
<path d="M88.0482 0.516174C89.0446 0.419768 90.0849 0.741525 90.9876 1.28473H90.9886C93.3896 2.72771 95.3033 5.22903 96.971 7.59625C98.1023 9.20291 99.0688 10.8225 99.8333 12.6177V12.6187C100.709 14.6714 101.386 16.8138 101.943 18.9937V18.9947C102.001 19.2195 102.057 19.446 102.113 19.6734L102.114 19.6773L102.117 19.6871L102.211 20.0816C102.229 20.1553 102.24 20.1977 102.252 20.2545L102.255 20.2672L102.311 20.5054C102.823 22.7256 102.25 24.3471 101.119 25.5718C99.9627 26.825 98.1903 27.6947 96.2708 28.2896C92.4392 29.4772 88.2564 29.4995 88.0062 29.4996H87.9935L87.1663 29.4791C85.7555 29.4206 82.7828 29.1986 79.9544 28.358C78.0666 27.7969 76.2964 26.9752 75.0911 25.7886C73.9092 24.6249 73.2522 23.096 73.5872 21.022L73.5882 21.0172C73.5968 20.9603 73.607 20.9031 73.6175 20.8443C73.6377 20.7342 73.6617 20.6206 73.6888 20.5035L73.6878 20.5025C73.7414 20.272 73.7972 20.0422 73.8528 19.8111L73.8519 19.8101C73.8878 19.6627 73.924 19.5176 73.9603 19.3736V19.3726C73.9944 19.2362 74.0291 19.1012 74.0638 18.9654C74.0971 18.8353 74.1289 18.7069 74.1624 18.5806V18.5836C74.1636 18.5797 74.164 18.5749 74.1653 18.5699L74.1673 18.566C74.2302 18.3263 74.2944 18.0874 74.3616 17.8502L74.3646 17.8404C74.3733 17.8068 74.3798 17.7805 74.387 17.7554L74.389 17.7505C74.8788 16.0001 75.4572 14.2801 76.1644 12.6187C76.9299 10.8233 77.8964 9.20292 79.0276 7.59625C80.6954 5.22889 82.6098 2.72771 85.011 1.28473C85.9135 0.741654 86.9551 0.419913 87.9515 0.516174L88.0003 0.521057L88.0482 0.516174ZM74.1566 18.6021L74.1575 18.6002L74.1585 18.5972C74.1578 18.5995 74.1568 18.6014 74.1566 18.6021Z" fill="url(#paint0_radial_1_3481)" stroke="white"/>
<circle cx="92.0001" cy="8.00006" r="1.5" fill="#D7D9FF" stroke="white"/>
<path d="M74.1573 18.5967H74.1583C74.1592 18.5937 74.1606 18.5893 74.1622 18.584C74.1633 18.5802 74.1638 18.5752 74.1651 18.5703L74.1671 18.5664C74.2161 18.3795 74.2669 18.1933 74.3184 18.0078C75.1553 17.3728 76.069 16.6202 76.8438 15.835C77.6174 15.051 78.2987 14.1902 78.5948 13.3506C78.9698 12.2875 79.413 11.7164 79.8301 11.4287C80.2321 11.1515 80.6652 11.0994 81.128 11.1973C81.6054 11.2983 82.1028 11.5582 82.5723 11.8906C82.9214 12.1378 83.2403 12.4143 83.5069 12.6689L83.7549 12.9141C84.2849 13.4556 85.0998 13.5954 85.7715 13.2559L85.9044 13.1816C86.6373 12.7259 87.6121 11.8723 88.5587 10.293C89.0744 9.43317 90.1 9.07334 90.9942 9.40625L91.171 9.48242C92.8721 10.3131 95.7496 12.4029 100.426 17.3867L101.385 18.4219C101.596 18.653 101.79 18.8802 101.969 19.1016L102.112 19.6738L102.113 19.6768L102.116 19.6875L102.211 20.082C102.228 20.1556 102.24 20.198 102.252 20.2549L102.255 20.2676C102.274 20.3455 102.289 20.4145 102.311 20.5049C102.823 22.7251 102.25 24.3464 101.119 25.5713C99.9624 26.8245 98.1901 27.6951 96.2706 28.29C92.439 29.4776 88.2562 29.5 88.0059 29.5H87.9932L87.1661 29.4785C85.7552 29.4201 82.7826 29.199 79.9542 28.3584C78.0661 27.7973 76.2962 26.9748 75.0909 25.7881C73.909 24.6244 73.2521 23.0963 73.587 21.0225L73.588 21.0176C73.5966 20.9604 73.6067 20.9028 73.6172 20.8438C73.6374 20.7338 73.6605 20.6198 73.6876 20.5029C73.7412 20.2723 73.7959 20.0418 73.8516 19.8105L73.96 19.373L74.0635 18.9648L74.1573 18.5967ZM74.1573 18.5967C74.1579 18.5948 74.1595 18.5924 74.1602 18.5898C74.161 18.5873 74.1613 18.5843 74.1622 18.5811L74.1573 18.5967Z" fill="#8589EB" stroke="white"/>
<path opacity="0.15" d="M83.7794 19.8376C85.6468 18.1509 87.8931 17.9108 89.9278 18.3933C91.9822 18.8805 93.7577 20.0929 94.6065 21.2058C95.3105 22.1283 96.3764 22.4576 97.4044 22.5124C98.4325 22.5672 99.4962 22.3531 100.317 22.113V22.114C100.613 22.0279 100.908 21.9289 101.198 21.8132H101.199C101.473 21.7039 101.745 21.5788 102.01 21.4333L102.011 21.4343C102.067 21.4036 102.125 21.3697 102.183 21.3357L102.184 21.3366C102.268 21.2873 102.351 21.235 102.434 21.1814C102.695 23.06 102.132 24.475 101.119 25.572C99.9624 26.8252 98.1901 27.6948 96.2706 28.2898C92.439 29.4773 88.2562 29.4997 88.0059 29.4997H87.9932L87.1661 29.4792C85.7552 29.4208 82.7826 29.1987 79.9542 28.3581C78.0663 27.7971 76.2961 26.9754 75.0909 25.7888C73.909 24.625 73.2519 23.0962 73.587 21.0222L73.588 21.0173C73.5966 20.9604 73.6067 20.9032 73.6172 20.8445C73.6374 20.7344 73.6614 20.6207 73.6885 20.5036L73.6876 20.5027C73.7412 20.2722 73.797 20.0424 73.8526 19.8112L73.8516 19.8103C73.8608 19.7726 73.8708 19.7353 73.8799 19.698C74.4067 19.6533 74.9025 19.8002 75.3038 20.323L75.3057 20.3249C75.3692 20.4067 75.4361 20.4917 75.5059 20.5759C75.8573 20.9999 76.2539 21.3902 76.7081 21.697V21.698C76.9519 21.8629 77.2133 22.004 77.4932 22.113L77.7794 22.2107C78.4814 22.4193 79.2615 22.4159 80.127 22.1482L80.128 22.1491C81.2018 21.818 82.4041 21.0798 83.7794 19.8376Z" fill="white" stroke="white"/>
<path opacity="0.15" d="M74.253 18.2489C74.4372 18.3285 74.6228 18.4336 74.8057 18.5771C75.3038 18.9679 75.8109 19.6365 76.2559 20.7382L76.2569 20.7392C76.3317 20.9236 76.405 21.1201 76.4747 21.328L76.4756 21.3329L76.5196 21.4579C76.9467 22.6748 77.7009 24.0937 79.0772 24.6942C79.2151 24.7549 79.3583 24.8062 79.504 24.8476C80.4002 25.1012 81.3283 24.9735 82.1641 24.6786C82.897 24.42 83.5853 24.0242 84.1651 23.6015L84.4063 23.4189C84.6058 23.2629 84.803 23.0933 84.9805 22.9452C85.164 22.7922 85.3368 22.6529 85.5157 22.5321H85.5167C86.6443 21.7705 87.9325 21.9314 89.2149 22.5946C90.3395 23.1764 91.385 24.1126 92.1505 24.9843L92.461 25.3524C92.5335 25.4426 92.6051 25.5345 92.6768 25.6269V25.6259C92.9746 26.0116 93.2892 26.3276 93.6212 26.5722V26.5732C94.3628 27.1226 95.1574 27.2967 95.9522 27.1776C96.7287 27.0612 97.4732 26.6708 98.1583 26.1503C99.5247 25.1121 100.782 23.4585 101.758 21.954C101.913 21.7167 102.059 21.482 102.198 21.2548C102.266 21.1448 102.331 21.0358 102.396 20.9286C102.746 22.9338 102.177 24.4265 101.119 25.5722C99.9624 26.8253 98.1901 27.695 96.2706 28.2899C92.439 29.4775 88.2562 29.4999 88.0059 29.4999H87.9932L87.1661 29.4794C85.7552 29.421 82.7826 29.1989 79.9542 28.3583C78.0663 27.7972 76.2961 26.9755 75.0909 25.789C73.909 24.6252 73.2519 23.0964 73.587 21.0224L73.588 21.0175C73.5966 20.9606 73.6067 20.9034 73.6172 20.8446C73.6374 20.7345 73.6614 20.6209 73.6885 20.5038L73.6876 20.5028C73.7412 20.2723 73.7969 20.0426 73.8526 19.8114L73.8516 19.8105C73.8875 19.663 73.9238 19.518 73.96 19.3739V19.373C73.9942 19.2365 74.0288 19.1016 74.0635 18.9657C74.0968 18.8356 74.1287 18.7073 74.1622 18.581V18.5839C74.1633 18.58 74.1638 18.5753 74.1651 18.5702L74.1671 18.5663C74.1949 18.4602 74.2244 18.3546 74.253 18.2489ZM74.1563 18.6024L74.1573 18.6005L74.1583 18.5976C74.1575 18.5998 74.1565 18.6017 74.1563 18.6024Z" fill="white" stroke="white"/>
<path opacity="0.15" d="M102.318 20.5467C102.814 22.746 102.243 24.3548 101.119 25.5721C99.9624 26.8253 98.19 27.6949 96.2706 28.2899C92.439 29.4774 88.2562 29.4998 88.0059 29.4998H87.9932L87.1661 29.4793C85.7552 29.4209 82.7826 29.1988 79.9542 28.3582C78.0663 27.7972 76.2961 26.9755 75.0909 25.7889C73.9537 24.6692 73.3049 23.2118 73.5557 21.2557C74.2038 20.9045 75.0245 20.6131 75.8038 20.7479V20.7489C76.0314 20.7889 76.2566 20.8647 76.4756 20.9872H76.4766C76.8202 21.1782 77.1725 21.4952 77.502 22.0038C77.6428 22.2209 77.7801 22.4732 77.9102 22.7655L78.0372 23.0721C78.2443 23.6035 78.5272 24.1173 78.8936 24.5565C79.4809 25.2614 80.2921 25.7775 81.3331 25.8358C82.9143 25.9238 84.3152 25.0833 85.4229 24.3192L85.4219 24.3182C85.9551 23.9507 86.4438 23.8546 86.919 23.9032C87.4138 23.9538 87.9277 24.1658 88.4922 24.4793C89.0774 24.8044 89.6064 25.1706 90.2501 25.5555C90.8615 25.9211 91.5256 26.2692 92.2364 26.4491C92.8171 26.596 93.3767 26.6656 93.9141 26.6707V26.6698C97.0024 26.7018 99.2244 24.6066 100.462 23.0311C100.903 22.4702 101.232 21.9605 101.443 21.6043C101.535 21.4502 101.605 21.3249 101.652 21.2372C101.676 21.1936 101.694 21.1588 101.706 21.1346C101.709 21.1295 101.711 21.1241 101.713 21.12C101.714 21.1177 101.717 21.1154 101.719 21.1122C101.727 21.0987 101.741 21.0767 101.761 21.0497C101.8 20.9949 101.859 20.9194 101.934 20.8407C102.047 20.721 102.179 20.6152 102.318 20.5467Z" fill="white" stroke="white"/>
<path opacity="0.15" d="M75.1417 18.6836C75.7337 18.651 76.2726 18.7396 76.7227 18.9893C77.1645 19.2344 77.565 19.6585 77.8477 20.3809C78.2371 21.377 78.961 21.8965 79.8409 22.1514C80.3052 22.2865 80.8119 22.3481 81.3331 22.377C82.162 22.4231 82.8891 22.1413 83.5274 21.8232C83.8431 21.666 84.1633 21.4861 84.4542 21.3301C84.7535 21.1695 85.0368 21.0251 85.3204 20.9141C88.0956 19.8283 89.773 20.1801 91.046 20.8564C91.7086 21.2086 92.2754 21.6554 92.8663 22.1055C93.4411 22.5433 94.0505 22.9934 94.7413 23.2598C97.1632 24.1939 98.9904 23.9197 100.318 23.1572C100.883 22.8332 101.343 22.4292 101.712 22.0156L101.711 22.0146C101.965 21.7326 102.176 21.4457 102.351 21.1768L102.352 21.1758C102.375 21.1401 102.395 21.1035 102.417 21.0684C102.717 23.0035 102.152 24.4533 101.119 25.5723C99.9624 26.8254 98.19 27.6951 96.2706 28.29C92.439 29.4776 88.2562 29.5 88.0059 29.5H87.9932L87.1661 29.4795C85.7552 29.4211 82.7826 29.199 79.9542 28.3584C78.0664 27.7973 76.2961 26.9756 75.0909 25.7891C73.909 24.6253 73.252 23.0964 73.587 21.0225L73.588 21.0176C73.5966 20.9607 73.6067 20.9035 73.6172 20.8447C73.6374 20.7346 73.6614 20.621 73.6885 20.5039L73.6876 20.5029C73.7412 20.2724 73.7969 20.0427 73.8526 19.8115L73.8516 19.8105C73.8875 19.6631 73.9238 19.5181 73.96 19.374V19.373C73.9942 19.2364 74.0288 19.1009 74.0635 18.9648C74.0736 18.9256 74.0829 18.8865 74.0928 18.8477C74.334 18.7882 74.5759 18.7422 74.8145 18.7129L75.1417 18.6836ZM74.1602 18.5908C74.1589 18.5952 74.1579 18.5987 74.1573 18.6006L74.1563 18.6025C74.1565 18.6019 74.1575 18.5992 74.1583 18.5967L74.1622 18.584C74.1615 18.5864 74.1608 18.5889 74.1602 18.5908Z" fill="white" stroke="white"/>
</g>
<path d="M114.04 21V9.64H116.28L119.864 16.2L123.464 9.64H125.624V21H123.32V13.816L120.68 18.632H118.984L116.344 13.816V21H114.04ZM135.456 21.24C134.827 21.24 134.246 21.128 133.712 20.904C133.179 20.68 132.715 20.3707 132.32 19.976C131.926 19.5707 131.616 19.096 131.392 18.552C131.179 18.008 131.072 17.416 131.072 16.776C131.072 16.136 131.184 15.5493 131.408 15.016C131.632 14.472 131.942 13.9973 132.336 13.592C132.742 13.1867 133.211 12.872 133.744 12.648C134.288 12.424 134.88 12.312 135.52 12.312C136.15 12.312 136.731 12.424 137.264 12.648C137.798 12.872 138.262 13.1867 138.656 13.592C139.051 13.9867 139.355 14.456 139.568 15C139.792 15.5333 139.904 16.12 139.904 16.76C139.904 17.4 139.792 17.992 139.568 18.536C139.344 19.08 139.03 19.5547 138.624 19.96C138.23 20.3653 137.76 20.68 137.216 20.904C136.683 21.128 136.096 21.24 135.456 21.24ZM135.488 19.224C135.894 19.224 136.256 19.1173 136.576 18.904C136.896 18.6907 137.147 18.4027 137.328 18.04C137.52 17.6667 137.616 17.2453 137.616 16.776C137.616 16.3067 137.52 15.8907 137.328 15.528C137.147 15.1547 136.896 14.8613 136.576 14.648C136.256 14.4347 135.894 14.328 135.488 14.328C135.083 14.328 134.72 14.4347 134.4 14.648C134.08 14.8613 133.824 15.1547 133.632 15.528C133.451 15.8907 133.36 16.3067 133.36 16.776C133.36 17.2453 133.451 17.6667 133.632 18.04C133.824 18.4027 134.08 18.6907 134.4 18.904C134.72 19.1173 135.083 19.224 135.488 19.224ZM149.359 21.24C148.729 21.24 148.148 21.128 147.615 20.904C147.081 20.68 146.617 20.3707 146.223 19.976C145.828 19.5707 145.519 19.096 145.295 18.552C145.081 18.008 144.975 17.416 144.975 16.776C144.975 16.136 145.087 15.5493 145.311 15.016C145.535 14.472 145.844 13.9973 146.239 13.592C146.644 13.1867 147.113 12.872 147.647 12.648C148.191 12.424 148.783 12.312 149.423 12.312C150.052 12.312 150.633 12.424 151.167 12.648C151.7 12.872 152.164 13.1867 152.559 13.592C152.953 13.9867 153.257 14.456 153.471 15C153.695 15.5333 153.807 16.12 153.807 16.76C153.807 17.4 153.695 17.992 153.471 18.536C153.247 19.08 152.932 19.5547 152.527 19.96C152.132 20.3653 151.663 20.68 151.119 20.904C150.585 21.128 149.999 21.24 149.359 21.24ZM149.391 19.224C149.796 19.224 150.159 19.1173 150.479 18.904C150.799 18.6907 151.049 18.4027 151.231 18.04C151.423 17.6667 151.519 17.2453 151.519 16.776C151.519 16.3067 151.423 15.8907 151.231 15.528C151.049 15.1547 150.799 14.8613 150.479 14.648C150.159 14.4347 149.796 14.328 149.391 14.328C148.985 14.328 148.623 14.4347 148.303 14.648C147.983 14.8613 147.727 15.1547 147.535 15.528C147.353 15.8907 147.263 16.3067 147.263 16.776C147.263 17.2453 147.353 17.6667 147.535 18.04C147.727 18.4027 147.983 18.6907 148.303 18.904C148.623 19.1173 148.985 19.224 149.391 19.224ZM159.119 21V12.552H161.183L161.247 13.64C161.492 13.2347 161.828 12.9147 162.255 12.68C162.692 12.4347 163.188 12.312 163.743 12.312C164.362 12.312 164.9 12.4613 165.359 12.76C165.828 13.048 166.191 13.464 166.447 14.008C166.703 14.552 166.831 15.192 166.831 15.928V21H164.591V16.216C164.591 15.6293 164.458 15.1707 164.191 14.84C163.924 14.4987 163.556 14.328 163.087 14.328C162.746 14.328 162.447 14.408 162.191 14.568C161.935 14.7173 161.732 14.9307 161.583 15.208C161.434 15.4853 161.359 15.8 161.359 16.152V21H159.119Z" fill="white"/>
<path d="M4.544 21.24C3.86133 21.24 3.232 21.1227 2.656 20.888C2.09067 20.6427 1.60533 20.3013 1.2 19.864C0.805333 19.416 0.533333 18.8827 0.384 18.264L2.608 17.784C2.74667 18.2213 2.98667 18.5627 3.328 18.808C3.68 19.0533 4.096 19.176 4.576 19.176C4.91733 19.176 5.216 19.1173 5.472 19C5.73867 18.872 5.94133 18.7013 6.08 18.488C6.22933 18.2747 6.304 18.0293 6.304 17.752C6.304 17.4 6.17067 17.1173 5.904 16.904C5.63733 16.68 5.20533 16.4987 4.608 16.36L4.096 16.248C2.92267 15.992 2.05867 15.5813 1.504 15.016C0.949333 14.44 0.672 13.7413 0.672 12.92C0.672 12.408 0.773333 11.9387 0.976 11.512C1.17867 11.0853 1.456 10.7173 1.808 10.408C2.17067 10.088 2.592 9.84267 3.072 9.672C3.552 9.49067 4.06933 9.4 4.624 9.4C5.25333 9.4 5.84 9.51733 6.384 9.752C6.928 9.98667 7.38667 10.3227 7.76 10.76C8.13333 11.1973 8.384 11.7147 8.512 12.312L6.32 12.792C6.192 12.3653 5.968 12.04 5.648 11.816C5.33867 11.5813 4.976 11.464 4.56 11.464C4.272 11.464 4.01067 11.5227 3.776 11.64C3.552 11.7467 3.37067 11.9013 3.232 12.104C3.104 12.296 3.04 12.5147 3.04 12.76C3.04 13.1333 3.184 13.4213 3.472 13.624C3.76 13.816 4.18667 13.976 4.752 14.104L5.264 14.216C6.42667 14.472 7.28533 14.8773 7.84 15.432C8.40533 15.9867 8.688 16.696 8.688 17.56C8.688 18.104 8.58133 18.6 8.368 19.048C8.16533 19.496 7.87733 19.8853 7.504 20.216C7.13067 20.5467 6.69333 20.8027 6.192 20.984C5.69067 21.1547 5.14133 21.24 4.544 21.24ZM16.3079 10.264C16.3079 10.5093 16.2492 10.728 16.1319 10.92C16.0252 11.112 15.8705 11.2667 15.6679 11.384C15.4759 11.4907 15.2625 11.544 15.0279 11.544C14.7932 11.544 14.5745 11.4907 14.3719 11.384C14.1799 11.2667 14.0252 11.112 13.9079 10.92C13.8012 10.728 13.7479 10.5093 13.7479 10.264C13.7479 10.0187 13.8012 9.8 13.9079 9.608C14.0252 9.416 14.1799 9.26667 14.3719 9.16C14.5745 9.04267 14.7932 8.984 15.0279 8.984C15.2625 8.984 15.4759 9.04267 15.6679 9.16C15.8705 9.26667 16.0252 9.416 16.1319 9.608C16.2492 9.8 16.3079 10.0187 16.3079 10.264ZM13.9079 21V12.552H16.1479V21H13.9079ZM21.7791 21V9.064H24.0191V21H21.7791ZM33.6504 21.24C33.021 21.24 32.4397 21.1333 31.9064 20.92C31.3837 20.696 30.9304 20.3867 30.5464 19.992C30.1624 19.5867 29.8637 19.112 29.6504 18.568C29.437 18.0133 29.3304 17.4107 29.3304 16.76C29.3304 16.1307 29.437 15.544 29.6504 15C29.8637 14.456 30.157 13.9867 30.5304 13.592C30.9144 13.1867 31.3624 12.872 31.8744 12.648C32.3864 12.424 32.941 12.312 33.5384 12.312C34.157 12.312 34.717 12.4187 35.2184 12.632C35.7304 12.8453 36.1677 13.1493 36.5304 13.544C36.893 13.9387 37.1704 14.408 37.3624 14.952C37.565 15.496 37.6664 16.104 37.6664 16.776V17.336H31.6024C31.6984 17.9653 31.9277 18.4613 32.2904 18.824C32.653 19.176 33.1117 19.352 33.6664 19.352C34.0504 19.352 34.397 19.2613 34.7064 19.08C35.0264 18.8987 35.2877 18.6373 35.4904 18.296L37.4904 18.936C37.2984 19.416 37.0104 19.8267 36.6264 20.168C36.2424 20.5093 35.7944 20.776 35.2824 20.968C34.7704 21.1493 34.2264 21.24 33.6504 21.24ZM33.5384 14.04C33.0477 14.04 32.6317 14.2 32.2904 14.52C31.9597 14.84 31.741 15.2773 31.6344 15.832H35.3624C35.277 15.2773 35.069 14.84 34.7384 14.52C34.4184 14.2 34.0184 14.04 33.5384 14.04ZM42.8966 21V12.552H44.9606L45.0246 13.64C45.27 13.2347 45.606 12.9147 46.0326 12.68C46.47 12.4347 46.966 12.312 47.5206 12.312C48.1393 12.312 48.678 12.4613 49.1366 12.76C49.606 13.048 49.9686 13.464 50.2246 14.008C50.4806 14.552 50.6086 15.192 50.6086 15.928V21H48.3686V16.216C48.3686 15.6293 48.2353 15.1707 47.9686 14.84C47.702 14.4987 47.334 14.328 46.8646 14.328C46.5233 14.328 46.2246 14.408 45.9686 14.568C45.7126 14.7173 45.51 14.9307 45.3606 15.208C45.2113 15.4853 45.1366 15.8 45.1366 16.152V21H42.8966ZM59.6663 21.24C59.0796 21.24 58.5729 21.128 58.1463 20.904C57.7303 20.6693 57.4049 20.3333 57.1703 19.896C56.9463 19.4587 56.8343 18.9253 56.8343 18.296V14.36H55.3943V12.552H56.8343V9.672H59.0743V12.552H61.3783V14.36H59.0743V18.024C59.0743 18.4293 59.1596 18.744 59.3303 18.968C59.5009 19.1813 59.7623 19.288 60.1143 19.288C60.2956 19.288 60.4876 19.2613 60.6903 19.208C60.9036 19.1547 61.1063 19.0853 61.2983 19L61.6983 20.68C61.4209 20.8507 61.1116 20.984 60.7703 21.08C60.4289 21.1867 60.0609 21.24 59.6663 21.24Z" fill="white"/>
</g>
<defs>
<radialGradient id="paint0_radial_1_3481" cx="0" cy="0" r="1" gradientUnits="userSpaceOnUse" gradientTransform="translate(87.9999 14.9998) scale(14.9075 15.0942)">
<stop offset="2.23767e-07" stop-color="#CFCFFA"/>
<stop offset="1" stop-color="#767FF7"/>
</radialGradient>
<clipPath id="clip0_1_3481">
<rect width="30" height="30" fill="white" transform="translate(73)"/>
</clipPath>
</defs>
</svg>
