<svg width="168" height="30" viewBox="0 0 168 30" fill="none" xmlns="http://www.w3.org/2000/svg">
<g clip-path="url(#clip0_1_3665)">
<path d="M88.006 29.9997C88.006 29.9997 88.0022 29.9997 87.9936 29.9997C87.4925 29.9997 71.6441 29.919 73.0942 20.9424C73.1037 20.8799 73.1141 20.8174 73.1255 20.754C73.1474 20.6349 73.173 20.5138 73.2015 20.3908C73.2555 20.1583 73.3106 19.9267 73.3666 19.6942C73.4026 19.5462 73.4387 19.3982 73.4757 19.2512C73.5099 19.1147 73.544 18.9783 73.5792 18.8409C73.6124 18.7112 73.6456 18.5815 73.6798 18.4527C73.6807 18.4479 73.6826 18.444 73.6835 18.4392C73.7471 18.1971 73.8126 17.955 73.8809 17.7138C73.8895 17.6811 73.898 17.6484 73.9075 17.6158C74.4019 15.8487 74.9875 14.1075 75.7049 12.4221C76.4879 10.5859 77.4739 8.93506 78.6193 7.30827C80.2839 4.94544 82.2512 2.35968 84.7537 0.855885C85.7198 0.274546 86.8681 -0.0905927 88.0003 0.0189489C89.1324 -0.0905927 90.2798 0.274546 91.2459 0.855885C93.7484 2.35968 95.7157 4.94544 97.3802 7.30827C98.5257 8.93506 99.5117 10.5859 100.294 12.4221C101.182 14.5044 101.866 16.6722 102.427 18.8697C102.486 19.0975 102.543 19.3261 102.599 19.5548C102.601 19.5596 102.602 19.5644 102.603 19.5692C102.635 19.7019 102.667 19.8345 102.698 19.9671C102.713 20.0276 102.728 20.0872 102.741 20.1477C102.761 20.2284 102.779 20.3101 102.798 20.3908C104.998 29.9161 88.5175 29.9997 88.006 29.9997Z" fill="url(#paint0_radial_1_3665)"/>
<circle cx="92.0002" cy="8.00006" r="2" fill="#D7D9FF"/>
<path d="M88.0057 29.9998C88.0057 29.9998 88.0019 29.9998 87.9934 29.9998C87.4923 29.9998 71.6439 29.9191 73.094 20.9424C73.1035 20.88 73.1139 20.8175 73.1253 20.7541C73.1471 20.6349 73.1727 20.5139 73.2012 20.3909C73.2553 20.1583 73.3103 19.9268 73.3663 19.6942C73.4024 19.5462 73.4385 19.3983 73.4755 19.2512C73.5096 19.1148 73.5438 18.9784 73.5789 18.8409C73.6121 18.7112 73.6453 18.5815 73.6795 18.4527C73.6805 18.4479 73.6824 18.4441 73.6833 18.4393C73.7469 18.1971 73.8124 17.955 73.8807 17.7138C73.9158 17.6869 73.9519 17.66 73.987 17.6331C75.6572 16.3686 77.6074 14.6486 78.1237 13.1842C79.7019 8.71027 82.8384 11.2614 84.1129 12.5644C84.5181 12.9785 85.1502 13.0612 85.6408 12.7566C86.3022 12.3453 87.2218 11.5516 88.13 10.0363C88.8076 8.90629 90.215 8.45947 91.3908 9.03313C93.2917 9.96135 96.4955 12.3367 101.754 18.0847C101.997 18.3509 102.222 18.6123 102.427 18.8698C102.486 19.0975 102.543 19.3262 102.599 19.5549C102.6 19.5597 102.601 19.5645 102.602 19.5693C102.635 19.7019 102.667 19.8345 102.698 19.9671C102.712 20.0276 102.728 20.0872 102.741 20.1478C102.761 20.2285 102.779 20.3101 102.798 20.3909C104.998 29.9162 88.5172 29.9998 88.0057 29.9998Z" fill="#8589EB"/>
<path opacity="0.15" d="M88.0057 30C88.0057 30 88.0019 30 87.9934 30C87.4923 30 71.6439 29.9193 73.094 20.9426C73.1035 20.8802 73.1139 20.8177 73.1253 20.7543C73.1471 20.6351 73.1727 20.5141 73.2012 20.3911C73.2553 20.1585 73.3103 19.9269 73.3663 19.6944C73.4024 19.5464 73.4385 19.3985 73.4755 19.2514C74.2375 19.0929 75.0717 19.1986 75.7009 20.0182C75.7635 20.0989 75.8262 20.1787 75.8907 20.2565C76.2219 20.6563 76.5844 21.0108 76.9887 21.2837C77.2772 21.4788 77.5866 21.6325 77.9216 21.7315C78.5194 21.9093 79.1989 21.9131 79.9809 21.671C80.9593 21.3692 82.0991 20.6822 83.4448 19.4667C87.48 15.822 93.1512 18.4722 95.0046 20.9023C96.1662 22.4243 98.59 22.0976 100.178 21.6335C100.461 21.5509 100.741 21.4576 101.014 21.3491C101.274 21.2453 101.528 21.129 101.773 20.9945C101.826 20.9657 101.879 20.9359 101.931 20.9051C102.076 20.8206 102.216 20.7303 102.354 20.6322C102.48 20.5419 102.607 20.442 102.679 20.3036C102.706 20.2546 102.724 20.2018 102.741 20.148C102.761 20.2287 102.779 20.3103 102.798 20.3911C104.998 29.9164 88.5172 30 88.0057 30Z" fill="white"/>
<path opacity="0.15" d="M88.0057 30.0001C88.0057 30.0001 88.0019 30.0001 87.9934 30.0001C87.4923 30.0001 71.6439 29.9194 73.094 20.9427C73.1035 20.8803 73.1139 20.8178 73.1253 20.7544C73.1471 20.6352 73.1727 20.5142 73.2012 20.3912C73.2553 20.1586 73.3103 19.9271 73.3663 19.6945C73.4024 19.5466 73.4385 19.3986 73.4755 19.2516C73.5096 19.1151 73.5438 18.9787 73.5789 18.8413C73.6121 18.7115 73.6453 18.5818 73.6795 18.4531C73.6805 18.4483 73.6824 18.4444 73.6833 18.4396C73.7469 18.1975 73.8124 17.9553 73.8807 17.7141C73.8892 17.6815 73.8978 17.6488 73.9073 17.6161C73.9338 17.6219 73.9604 17.6276 73.987 17.6334C74.3685 17.7228 74.7481 17.8967 75.1144 18.184C75.7009 18.6443 76.2532 19.3947 76.7201 20.5507C76.7989 20.7448 76.8758 20.9514 76.9488 21.1695C76.9621 21.2079 76.9745 21.2454 76.9887 21.2838C77.4053 22.4744 78.099 23.7226 79.2777 24.2367C79.3935 24.2876 79.515 24.3308 79.6402 24.3664C81.171 24.7998 82.9105 23.9542 84.0987 23.025C84.4811 22.7261 84.8351 22.3889 85.2365 22.1179C87.9175 20.3066 91.239 23.0413 92.8504 25.039C92.9254 25.1322 92.9994 25.2264 93.0725 25.3206C93.3477 25.677 93.6305 25.9586 93.919 26.1709C96.4595 28.0533 99.4033 24.6671 101.339 21.6826C101.491 21.4501 101.635 21.2195 101.773 20.9946C101.986 20.6477 102.183 20.3133 102.361 20.0001C102.437 19.8665 102.509 19.7368 102.579 19.6129C102.586 19.5984 102.595 19.584 102.602 19.5696C102.635 19.7022 102.667 19.8348 102.698 19.9674C102.712 20.028 102.728 20.0875 102.741 20.1481C102.761 20.2288 102.779 20.3105 102.798 20.3912C104.998 29.9165 88.5172 30.0001 88.0057 30.0001Z" fill="white"/>
<path opacity="0.15" d="M88.0057 30C88.0057 30 88.0019 30 87.9934 30C87.4923 30 71.6439 29.9192 73.094 20.9426C73.7972 20.5256 74.8449 20.0749 75.8907 20.2565C76.1697 20.3055 76.4487 20.3987 76.7201 20.5506C77.1453 20.7869 77.5543 21.1646 77.9216 21.7315C78.1303 22.0534 78.3258 22.4368 78.5033 22.8894C78.695 23.3813 78.9522 23.8464 79.2777 24.2365C79.7949 24.8573 80.4848 25.2878 81.3608 25.3368C82.7568 25.4146 84.0313 24.6718 85.1388 23.9079C87.6574 22.1716 89.8031 25.3175 92.3588 25.9642C92.9016 26.1016 93.4217 26.166 93.919 26.1708C96.7679 26.2006 98.8595 24.2634 100.069 22.7231C100.495 22.1822 100.812 21.6902 101.014 21.3491C101.189 21.0531 101.279 20.8715 101.279 20.8715C101.279 20.8715 101.696 20.1633 102.361 20C102.383 19.9932 102.406 19.9884 102.429 19.9846C102.515 19.9683 102.605 19.9625 102.698 19.9673C102.712 20.0278 102.728 20.0874 102.741 20.148C102.761 20.2287 102.779 20.3103 102.798 20.3911C104.998 29.9164 88.5172 30 88.0057 30Z" fill="white"/>
<path opacity="0.15" d="M88.0057 30.0001C88.0057 30.0001 88.0019 30.0001 87.9934 30.0001C87.4923 30.0001 71.6439 29.9194 73.094 20.9427C73.1035 20.8802 73.1139 20.8178 73.1253 20.7544C73.1471 20.6352 73.1727 20.5141 73.2012 20.3912C73.2553 20.1586 73.3103 19.927 73.3663 19.6945C73.4024 19.5465 73.4385 19.3985 73.4755 19.2515C73.5096 19.1151 73.5438 18.9786 73.5789 18.8412C73.6121 18.7115 73.6453 18.5818 73.6795 18.453C73.6805 18.4482 73.6824 18.4444 73.6833 18.4396C74.1502 18.306 74.6361 18.2099 75.1144 18.184C76.424 18.1119 77.6739 18.5645 78.3135 20.199C78.6362 21.0244 79.2208 21.451 79.9809 21.6711C80.3937 21.7912 80.8578 21.8498 81.3608 21.8776C82.7568 21.9555 83.8889 20.9379 85.1388 20.4488C90.9353 18.1811 92.4594 21.844 94.9211 22.7934C97.2206 23.6803 98.888 23.4016 100.069 22.7232C100.58 22.4302 101 22.0631 101.339 21.6826C101.573 21.4231 101.768 21.157 101.931 20.9052C102.157 20.5545 102.321 20.2307 102.429 19.9847C102.502 19.8204 102.551 19.6916 102.579 19.6128C102.587 19.5888 102.594 19.5696 102.599 19.5552C102.6 19.56 102.601 19.5648 102.602 19.5696C102.635 19.7022 102.667 19.8348 102.698 19.9674C102.712 20.0279 102.728 20.0875 102.741 20.148C102.761 20.2288 102.779 20.3104 102.798 20.3912C104.998 29.9165 88.5172 30.0001 88.0057 30.0001Z" fill="white"/>
</g>
<path d="M114.04 21V9.64H116.28L119.864 16.2L123.464 9.64H125.624V21H123.32V13.816L120.68 18.632H118.984L116.344 13.816V21H114.04ZM135.456 21.24C134.827 21.24 134.246 21.128 133.712 20.904C133.179 20.68 132.715 20.3707 132.32 19.976C131.926 19.5707 131.616 19.096 131.392 18.552C131.179 18.008 131.072 17.416 131.072 16.776C131.072 16.136 131.184 15.5493 131.408 15.016C131.632 14.472 131.942 13.9973 132.336 13.592C132.742 13.1867 133.211 12.872 133.744 12.648C134.288 12.424 134.88 12.312 135.52 12.312C136.15 12.312 136.731 12.424 137.264 12.648C137.798 12.872 138.262 13.1867 138.656 13.592C139.051 13.9867 139.355 14.456 139.568 15C139.792 15.5333 139.904 16.12 139.904 16.76C139.904 17.4 139.792 17.992 139.568 18.536C139.344 19.08 139.03 19.5547 138.624 19.96C138.23 20.3653 137.76 20.68 137.216 20.904C136.683 21.128 136.096 21.24 135.456 21.24ZM135.488 19.224C135.894 19.224 136.256 19.1173 136.576 18.904C136.896 18.6907 137.147 18.4027 137.328 18.04C137.52 17.6667 137.616 17.2453 137.616 16.776C137.616 16.3067 137.52 15.8907 137.328 15.528C137.147 15.1547 136.896 14.8613 136.576 14.648C136.256 14.4347 135.894 14.328 135.488 14.328C135.083 14.328 134.72 14.4347 134.4 14.648C134.08 14.8613 133.824 15.1547 133.632 15.528C133.451 15.8907 133.36 16.3067 133.36 16.776C133.36 17.2453 133.451 17.6667 133.632 18.04C133.824 18.4027 134.08 18.6907 134.4 18.904C134.72 19.1173 135.083 19.224 135.488 19.224ZM149.359 21.24C148.729 21.24 148.148 21.128 147.615 20.904C147.081 20.68 146.617 20.3707 146.223 19.976C145.828 19.5707 145.519 19.096 145.295 18.552C145.081 18.008 144.975 17.416 144.975 16.776C144.975 16.136 145.087 15.5493 145.311 15.016C145.535 14.472 145.844 13.9973 146.239 13.592C146.644 13.1867 147.113 12.872 147.647 12.648C148.191 12.424 148.783 12.312 149.423 12.312C150.052 12.312 150.633 12.424 151.167 12.648C151.7 12.872 152.164 13.1867 152.559 13.592C152.953 13.9867 153.257 14.456 153.471 15C153.695 15.5333 153.807 16.12 153.807 16.76C153.807 17.4 153.695 17.992 153.471 18.536C153.247 19.08 152.932 19.5547 152.527 19.96C152.132 20.3653 151.663 20.68 151.119 20.904C150.585 21.128 149.999 21.24 149.359 21.24ZM149.391 19.224C149.796 19.224 150.159 19.1173 150.479 18.904C150.799 18.6907 151.049 18.4027 151.231 18.04C151.423 17.6667 151.519 17.2453 151.519 16.776C151.519 16.3067 151.423 15.8907 151.231 15.528C151.049 15.1547 150.799 14.8613 150.479 14.648C150.159 14.4347 149.796 14.328 149.391 14.328C148.985 14.328 148.623 14.4347 148.303 14.648C147.983 14.8613 147.727 15.1547 147.535 15.528C147.353 15.8907 147.263 16.3067 147.263 16.776C147.263 17.2453 147.353 17.6667 147.535 18.04C147.727 18.4027 147.983 18.6907 148.303 18.904C148.623 19.1173 148.985 19.224 149.391 19.224ZM159.119 21V12.552H161.183L161.247 13.64C161.492 13.2347 161.828 12.9147 162.255 12.68C162.692 12.4347 163.188 12.312 163.743 12.312C164.362 12.312 164.9 12.4613 165.359 12.76C165.828 13.048 166.191 13.464 166.447 14.008C166.703 14.552 166.831 15.192 166.831 15.928V21H164.591V16.216C164.591 15.6293 164.458 15.1707 164.191 14.84C163.924 14.4987 163.556 14.328 163.087 14.328C162.746 14.328 162.447 14.408 162.191 14.568C161.935 14.7173 161.732 14.9307 161.583 15.208C161.434 15.4853 161.359 15.8 161.359 16.152V21H159.119Z" fill="#3F414E"/>
<path d="M4.544 21.24C3.86133 21.24 3.232 21.1227 2.656 20.888C2.09067 20.6427 1.60533 20.3013 1.2 19.864C0.805333 19.416 0.533333 18.8827 0.384 18.264L2.608 17.784C2.74667 18.2213 2.98667 18.5627 3.328 18.808C3.68 19.0533 4.096 19.176 4.576 19.176C4.91733 19.176 5.216 19.1173 5.472 19C5.73867 18.872 5.94133 18.7013 6.08 18.488C6.22933 18.2747 6.304 18.0293 6.304 17.752C6.304 17.4 6.17067 17.1173 5.904 16.904C5.63733 16.68 5.20533 16.4987 4.608 16.36L4.096 16.248C2.92267 15.992 2.05867 15.5813 1.504 15.016C0.949333 14.44 0.672 13.7413 0.672 12.92C0.672 12.408 0.773333 11.9387 0.976 11.512C1.17867 11.0853 1.456 10.7173 1.808 10.408C2.17067 10.088 2.592 9.84267 3.072 9.672C3.552 9.49067 4.06933 9.4 4.624 9.4C5.25333 9.4 5.84 9.51733 6.384 9.752C6.928 9.98667 7.38667 10.3227 7.76 10.76C8.13333 11.1973 8.384 11.7147 8.512 12.312L6.32 12.792C6.192 12.3653 5.968 12.04 5.648 11.816C5.33867 11.5813 4.976 11.464 4.56 11.464C4.272 11.464 4.01067 11.5227 3.776 11.64C3.552 11.7467 3.37067 11.9013 3.232 12.104C3.104 12.296 3.04 12.5147 3.04 12.76C3.04 13.1333 3.184 13.4213 3.472 13.624C3.76 13.816 4.18667 13.976 4.752 14.104L5.264 14.216C6.42667 14.472 7.28533 14.8773 7.84 15.432C8.40533 15.9867 8.688 16.696 8.688 17.56C8.688 18.104 8.58133 18.6 8.368 19.048C8.16533 19.496 7.87733 19.8853 7.504 20.216C7.13067 20.5467 6.69333 20.8027 6.192 20.984C5.69067 21.1547 5.14133 21.24 4.544 21.24ZM16.3079 10.264C16.3079 10.5093 16.2492 10.728 16.1319 10.92C16.0252 11.112 15.8705 11.2667 15.6679 11.384C15.4759 11.4907 15.2625 11.544 15.0279 11.544C14.7932 11.544 14.5745 11.4907 14.3719 11.384C14.1799 11.2667 14.0252 11.112 13.9079 10.92C13.8012 10.728 13.7479 10.5093 13.7479 10.264C13.7479 10.0187 13.8012 9.8 13.9079 9.608C14.0252 9.416 14.1799 9.26667 14.3719 9.16C14.5745 9.04267 14.7932 8.984 15.0279 8.984C15.2625 8.984 15.4759 9.04267 15.6679 9.16C15.8705 9.26667 16.0252 9.416 16.1319 9.608C16.2492 9.8 16.3079 10.0187 16.3079 10.264ZM13.9079 21V12.552H16.1479V21H13.9079ZM21.7791 21V9.064H24.0191V21H21.7791ZM33.6504 21.24C33.021 21.24 32.4397 21.1333 31.9064 20.92C31.3837 20.696 30.9304 20.3867 30.5464 19.992C30.1624 19.5867 29.8637 19.112 29.6504 18.568C29.437 18.0133 29.3304 17.4107 29.3304 16.76C29.3304 16.1307 29.437 15.544 29.6504 15C29.8637 14.456 30.157 13.9867 30.5304 13.592C30.9144 13.1867 31.3624 12.872 31.8744 12.648C32.3864 12.424 32.941 12.312 33.5384 12.312C34.157 12.312 34.717 12.4187 35.2184 12.632C35.7304 12.8453 36.1677 13.1493 36.5304 13.544C36.893 13.9387 37.1704 14.408 37.3624 14.952C37.565 15.496 37.6664 16.104 37.6664 16.776V17.336H31.6024C31.6984 17.9653 31.9277 18.4613 32.2904 18.824C32.653 19.176 33.1117 19.352 33.6664 19.352C34.0504 19.352 34.397 19.2613 34.7064 19.08C35.0264 18.8987 35.2877 18.6373 35.4904 18.296L37.4904 18.936C37.2984 19.416 37.0104 19.8267 36.6264 20.168C36.2424 20.5093 35.7944 20.776 35.2824 20.968C34.7704 21.1493 34.2264 21.24 33.6504 21.24ZM33.5384 14.04C33.0477 14.04 32.6317 14.2 32.2904 14.52C31.9597 14.84 31.741 15.2773 31.6344 15.832H35.3624C35.277 15.2773 35.069 14.84 34.7384 14.52C34.4184 14.2 34.0184 14.04 33.5384 14.04ZM42.8966 21V12.552H44.9606L45.0246 13.64C45.27 13.2347 45.606 12.9147 46.0326 12.68C46.47 12.4347 46.966 12.312 47.5206 12.312C48.1393 12.312 48.678 12.4613 49.1366 12.76C49.606 13.048 49.9686 13.464 50.2246 14.008C50.4806 14.552 50.6086 15.192 50.6086 15.928V21H48.3686V16.216C48.3686 15.6293 48.2353 15.1707 47.9686 14.84C47.702 14.4987 47.334 14.328 46.8646 14.328C46.5233 14.328 46.2246 14.408 45.9686 14.568C45.7126 14.7173 45.51 14.9307 45.3606 15.208C45.2113 15.4853 45.1366 15.8 45.1366 16.152V21H42.8966ZM59.6663 21.24C59.0796 21.24 58.5729 21.128 58.1463 20.904C57.7303 20.6693 57.4049 20.3333 57.1703 19.896C56.9463 19.4587 56.8343 18.9253 56.8343 18.296V14.36H55.3943V12.552H56.8343V9.672H59.0743V12.552H61.3783V14.36H59.0743V18.024C59.0743 18.4293 59.1596 18.744 59.3303 18.968C59.5009 19.1813 59.7623 19.288 60.1143 19.288C60.2956 19.288 60.4876 19.2613 60.6903 19.208C60.9036 19.1547 61.1063 19.0853 61.2983 19L61.6983 20.68C61.4209 20.8507 61.1116 20.984 60.7703 21.08C60.4289 21.1867 60.0609 21.24 59.6663 21.24Z" fill="#3F414E"/>
<defs>
<radialGradient id="paint0_radial_1_3665" cx="0" cy="0" r="1" gradientUnits="userSpaceOnUse" gradientTransform="translate(88.0001 14.9998) scale(14.9075 15.0942)">
<stop offset="2.23767e-07" stop-color="#8485E0"/>
<stop offset="1" stop-color="#7680FC"/>
</radialGradient>
<clipPath id="clip0_1_3665">
<rect width="30" height="30" fill="white" transform="translate(73)"/>
</clipPath>
</defs>
</svg>
